<svg xmlns="http://www.w3.org/2000/svg" width="579" height="579" fill="none"><g clip-path="url(#a)"><path fill="#0ACF83" d="M213.266 518.408c42.082 0 76.235-34.153 76.235-76.235v-76.235h-76.235c-42.082 0-76.235 34.154-76.235 76.235 0 42.082 34.153 76.235 76.235 76.235"/><path fill="#A259FF" d="M137.031 289.704c0-42.081 34.153-76.234 76.235-76.234h76.235v152.469h-76.235c-42.082 0-76.235-34.153-76.235-76.235"/><path fill="#F24E1E" d="M137.031 137.235c0-42.082 34.153-76.235 76.235-76.235h76.235v152.469h-76.235c-42.082 0-76.235-34.153-76.235-76.234"/><path fill="#FF7262" d="M289.5 61h76.235c42.081 0 76.234 34.153 76.234 76.235s-34.153 76.234-76.234 76.234H289.5z"/><path fill="#0082FF" d="M441.969 289.704c0 42.082-34.153 76.235-76.234 76.235-42.082 0-76.235-34.153-76.235-76.235s34.153-76.234 76.235-76.234 76.234 34.153 76.234 76.234"/></g><defs><clipPath id="a"><path fill="#fff" d="M137 61h305v457.409H137z"/></clipPath></defs></svg>